# AST/ASF file generated using VICON BodyLanguage
# -----------------------------------------------
:version 1.10
:name VICON
:units
  mass 1.0
  length 0.45
  angle deg
:documentation
   .ast/.asf automatically generated from VICON data using
   VICON BodyBuilder and BodyLanguage model FoxedUp or BRILLIANT.MOD
:root
   order TX TY TZ RX RY RZ
   axis XYZ
   position 0 0 0  
   orientation 0 0 0 
:bonedata
  begin
     id 1 
     name lhipjoint
     direction 0.521689 -0.742065 0.420928 
     length 2.47002 
     axis 0 0 0  XYZ
  end
  begin
     id 2 
     name lfemur
     direction 0.34202 -0.939693 0  
     length 7.24654  
     axis 0 0 20  XYZ
    dof rx ry rz
    limits (-160.0 20.0)
           (-70.0 70.0)
           (-60.0 70.0)
  end
  begin
     id 3 
     name ltibia
     direction 0.34202 -0.939693 0   
     length 8.04849   
     axis 0 0 20   XYZ
    dof rx
    limits (-10.0 170.0)
  end
  begin
     id 4 
     name lfoot
     direction 0.0745411 -0.2048 0.975961   
     length 1.72367   
     axis -90 7.62852e-016 20   XYZ
    dof rx rz
    limits (-45.0 90.0)
           (-70.0 20.0)
  end
  begin
     id 5 
     name ltoes
     direction 1.53556e-011 -4.21901e-011 1   
     length 0.87311   
     axis -90 7.62852e-016 20   XYZ
    dof rx
    limits (-90.0 20.0)
  end
  begin
     id 6 
     name rhipjoint
     direction -0.52849 -0.738415 0.418857   
     length 2.48223  
     axis 0 0 0  XYZ 
  end
  begin
     id 7 
     name rfemur
     direction -0.34202 -0.939693 0   
     length 7.15571   
     axis 0 0 -20   XYZ
    dof rx ry rz
    limits (-160.0 20.0)
           (-70.0 70.0)
           (-70.0 60.0)
  end
  begin
     id 8 
     name rtibia
     direction -0.34202 -0.939693 0   
     length 7.81659   
     axis 0 0 -20   XYZ
    dof rx
    limits (-10.0 170.0)
 end
 begin
     id 9 
     name rfoot
     direction -0.0917348 -0.252039 0.963359   
     length 1.84382  
     axis -90 -7.62852e-016 -20   XYZ
    dof rx rz
    limits (-45.0 90.0)
           (-20.0 70.0)
  end
  begin
     id 10 
     name rtoes
     direction -1.53551e-011 -4.21879e-011 1   
     length 0.927771   
     axis -90 -7.62852e-016 -20   XYZ
    dof rx
    limits (-90.0 20.0)
  end
  begin
     id 11 
     name lowerback
     direction 0.00583058 0.999822 0.0179296   
     length 2.1429   
     axis 0 0 0   XYZ
    dof rx ry rz
    limits (-20.0 45.0)
           (-30.0 30.0)
           (-30.0 30.0)
  end
  begin
     id 12 
     name upperback
     direction -0.0137999 0.999752 -0.0175071   
     length 2.14252   
     axis 0 0 0   XYZ
    dof rx ry rz
    limits (-20.0 45.0)
           (-30.0 30.0)
           (-30.0 30.0)
  end
  begin
     id 13 
     name thorax
     direction -0.0158036 0.99955 -0.0254909   
     length 2.1383   
     axis 0 0 0   XYZ
    dof rx ry rz
    limits (-20.0 45.0)
           (-30.0 30.0)
           (-30.0 30.0)
  end
  begin
     id 14 
     name lowerneck
     direction -0.0101179 0.999403 -0.0330262   
     length 1.65808   
     axis 0 0 0   XYZ
    dof rx ry rz
    limits (-20.0 45.0)
           (-30.0 30.0)
           (-30.0 30.0)
  end
  begin
     id 15 
     name upperneck
     direction 0.0497734 0.995978 -0.074501   
     length 1.5897   
     axis 0 0 0   XYZ
    dof rx ry rz
    limits (-20.0 45.0)
           (-30.0 30.0)
           (-30.0 30.0)
  end
  begin
     id 16
     name head
     direction 0.0189524 0.999519 -0.0245438  
     length 1.74024  
     axis 0 0 0   XYZ
    dof rx ry rz
    limits (-20.0 45.0)
           (-30.0 30.0)
           (-30.0 30.0)
  end
  begin
     id 17 
     name lclavicle
     direction 0.945604 0.324422 0.0241537  
     length 3.59089  
     axis 0 0 0   XYZ
    dof ry rz
    limits (-20.0 10.0)
           (0.0 20.0)
  end
  begin
     id 18 
     name lhumerus
     direction 1 -4.48964e-011 -2.63524e-027   
     length 5.2391   
     axis 180 -30 -90   XYZ
    dof rx ry rz
    limits (-60.0 90.0)
           (-90.0 90.0)
           (-90.0 90.0)
  end
  begin
     id 19
     name lradius
     direction 1 -4.48969e-011 3.86978e-028   
     length 3.31467   
     axis 180 -30 -90   XYZ
    dof rx
    limits (-10.0 170.0)
  end
  begin
     id 20
     name lwrist
     direction 1 -4.48963e-011 7.20928e-028   
     length 1.65734   
     axis -5.52449e-016 90 90   XYZ
    dof ry
    limits (-180.0 0.0)
 end
  begin
     id 21 
     name lhand
     direction 1 -4.48964e-011 1.44186e-027   
     length 0.9659   
     axis -9.20027e-016 90 90   XYZ
    dof rx rz
    limits (-90.0 90.0)
           (-45.0 45.0)
  end
  begin
     id 22 
     name lfingers
     direction 1 -4.48965e-011 2.88371e-027   
     length 0.778733   
     axis -1.84005e-015 90 90   XYZ
    dof rx
    limits (0.0 90.0)
  end
  begin
     id 23
     name lthumb
     direction 0.707107 -6.34931e-011 0.707107   
     length 1.11811   
     axis -90 45 2.85299e-015   XYZ
    dof rx rz
    limits (-45.0 45.0)
           (-45.0 45.0)
  end
  begin
     id 24 
     name rclavicle
     direction -0.923762 0.370785 0.0958234   
     length 3.54196  
     axis 0 0 0   XYZ 
    dof ry rz
    limits (-10.0 20.0)
           (-20.0 0.0)
  end
  begin
     id 25 
     name rhumerus
     direction -1 -4.48966e-011 1.18702e-017  
     length 5.30252   
     axis 180 30 90   XYZ
    dof rx ry rz
    limits (-90.0 60.0)
           (-90.0 90.0)
           (-90.0 90.0)
  end
  begin
     id 26 
     name rradius
     direction -1 -4.48966e-011 4.46736e-027   
     length 3.67875   
     axis 180 30 90   XYZ
    dof rx
    limits (-10.0 170.0)
  end
  begin
     id 27 
     name rwrist
     direction -1 -4.48966e-011 7.20928e-028   
     length 1.83937   
     axis -5.52449e-016 -90 -90   XYZ
    dof ry
    limits (-180.0 0.0)
  end
  begin
     id 28
     name rhand
     direction -1 -4.48973e-011 1.44186e-027   
     length 0.594811   
     axis -9.20027e-016 -90 -90   XYZ
    dof rx rz
    limits (-90.0 90.0)
           (-45.0 45.0)
  end
  begin
     id 29
     name rfingers
     direction -1 -4.48963e-011 2.88371e-027   
     length 0.479552   
     axis -1.84005e-015 -90 -90   XYZ
    dof rx
    limits (0.0 90.0)
  end
  begin
     id 30
     name rthumb
     direction -0.707107 -6.34932e-011 0.707107   
     length 0.688544   
     axis -90 -45 -2.85299e-015   XYZ
    dof rx rz
    limits (-45.0 45.0)
           (-45.0 45.0)
  end
:hierarchy
  begin
    root lhipjoint rhipjoint lowerback
    lhipjoint lfemur
    lfemur ltibia
    ltibia lfoot
    lfoot ltoes
    rhipjoint rfemur
    rfemur rtibia
    rtibia rfoot
    rfoot rtoes
    lowerback upperback
    upperback thorax
    thorax lowerneck lclavicle rclavicle
    lowerneck upperneck
    upperneck head
    lclavicle lhumerus
    lhumerus lradius
    lradius lwrist
    lwrist lhand lthumb
    lhand lfingers
    rclavicle rhumerus
    rhumerus rradius
    rradius rwrist
    rwrist rhand rthumb
    rhand rfingers
  end

#!OML:ASF E:\acrobat2\Project_11_07_03\Capture day 1\Session 1\Acrobat.ASF
:FULLY-SPECIFIED
:DEGREES
525
root 12.2569 15.6849 14.3278 625.314 -17.03 -237.718
lowerback 17.1103 -6.02886 9.21051
upperback 3.06237 -6.18475 5.6193
thorax -6.54949 -3.23013 2.3035
lowerneck -6.8503 -5.54031 -0.277733
upperneck -24.4677 -8.94488 0.818708
head -6.32889 -5.31762 0.700887
rclavicle -7.31528e-014 7.95139e-015
rhumerus 61.7255 -42.9216 -56.3312
rradius 19.1993
rwrist 1.27974
rhand -13.942 -56.0318
rfingers 7.12502
rthumb 12.1851 274.343
lclavicle -7.31528e-014 7.95139e-015
lhumerus 73.8124 -2.46854 45.9601
lradius 28.4537
lwrist 16.1139
lhand -43.63 -33.5808
lfingers 7.12502
lthumb -16.465 -4.25944
rfemur -72.6612 -31.4208 -19.562
rtibia 66.6412
rfoot -44.2164 -17.0674
rtoes 27.0045
lfemur -20.0685 23.907 -34.6136
ltibia 13.6332
lfoot -161.788 190.233
ltoes 39.6982
526
root 12.2834 15.647 14.6461 625.18 -19.0378 -238.395
lowerback 16.4358 -6.25141 8.79093
upperback 3.10895 -6.63553 6.2037
thorax -6.03244 -3.43767 3.1796
lowerneck -7.05723 -5.43196 -1.71512
upperneck -24.2707 -8.72242 1.33205
head -6.14567 -5.13644 1.07384
rclavicle 6.36111e-014 -5.96354e-015
rhumerus 60.2856 -42.5736 -53.4322
rradius 19.2754
rwrist -0.288026
rhand -12.8866 -57.1673
rfingers 7.12502
rthumb 13.2025 273.271
lclavicle 6.36111e-014 -5.96354e-015
lhumerus 71.7165 -3.6168 48.11
lradius 28.2117
lwrist 15.8321
lhand -42.3012 -32.6128
lfingers 7.12502
lthumb -15.1853 -3.18997
rfemur -73.4023 -32.1223 -18.2714
rtibia 68.5194
rfoot -44.3792 -18.6583
rtoes 24.5277
lfemur -20.5203 24.5721 -35.6382
ltibia 13.2214
lfoot -161.67 190.827
ltoes 40.6046
527
root 12.3111 15.6172 14.9553 625.029 -21.2158 -238.851
lowerback 15.7101 -6.0413 8.89256
upperback 3.0688 -6.43662 6.39536
thorax -5.6682 -3.34531 3.20061
lowerneck -6.63858 -5.30969 -1.72867
upperneck -23.7957 -8.59723 0.79056
head -6.0845 -4.98956 0.900047
rclavicle -1.90833e-014 -7.53394e-014
rhumerus 57.0095 -43.3006 -49.5923
rradius 19.4907
rwrist -2.11598
rhand -13.2492 -57.745
rfingers 7.12502
rthumb 12.8529 272.671
lclavicle -1.90833e-014 -7.53394e-014
lhumerus 70.2186 -5.92903 49.6884
lradius 28.1362
lwrist 15.4211
lhand -40.7701 -31.3775
lfingers 7.12502
lthumb -13.7101 -1.84915
rfemur -74.258 -32.603 -16.5925
rtibia 70.4415
rfoot -44.3737 -20.8828
rtoes 19.6708
lfemur -20.9905 25.475 -36.3669
ltibia 12.9152
lfoot -160.981 190.667
ltoes 41.5145
528
root 12.3401 15.5943 15.2535 624.897 -23.5236 -239.118
lowerback 14.9631 -5.94329 9.13485
upperback 3.06222 -6.37368 6.62263
thorax -5.26696 -3.31917 3.21174
lowerneck -4.03683 -4.18965 -1.65312
upperneck -24.3877 -7.40347 -0.885749
head -6.78553 -4.21432 0.422664
rclavicle 1.04958e-013 6.20457e-014
rhumerus 56.9266 -44.7199 -50.2237
rradius 19.1828
rwrist -0.259784
rhand -13.0552 -57.3013
rfingers 7.12502
rthumb 13.04 273.126
lclavicle 1.04958e-013 6.20457e-014
lhumerus 68.4547 -7.69458 50.7627
lradius 27.9291
lwrist 14.9038
lhand -39.3301 -30.3215
lfingers 7.12502
lthumb -12.322 -0.704553
rfemur -74.4577 -32.5886 -15.6372
rtibia 70.9052
rfoot -44.5932 -20.2945
rtoes 22.4656
lfemur -20.981 24.4192 -36.1075
ltibia 12.2442
lfoot -162.939 192.12
ltoes 40.9103
529
root 12.3664 15.5807 15.5389 624.608 -25.9082 -239.231
lowerback 14.6277 -5.79714 9.17762
upperback 2.92157 -6.20569 7.10439
thorax -5.18157 -3.24685 3.64255
lowerneck -3.92755 -3.70099 -1.99316
upperneck -23.835 -6.71834 -1.08841
head -6.618 -3.80489 0.371403
rclavicle 1.78111e-013 9.89948e-014
rhumerus 56.6444 -45.8366 -50.2659
rradius 18.861
rwrist 1.74141
rhand -14.4311 -57.6508
rfingers 7.12502
rthumb 11.7134 272.697
lclavicle 1.78111e-013 9.89948e-014
lhumerus 66.5873 -9.38946 51.5738
lradius 27.4522
lwrist 14.8121
lhand -38.1055 -29.6325
lfingers 7.12502
lthumb -11.141 0.0516963
rfemur -74.5468 -32.331 -14.4017
rtibia 71.5223
rfoot -44.8728 -20.4802
rtoes 22.8256
lfemur -20.6751 22.2572 -35.2687
ltibia 11.7789
lfoot -165.261 193.822
ltoes 43.5572
530
root 12.3917 15.5771 15.8153 623.958 -28.0861 -239.214
lowerback 14.0784 -5.84187 9.76855
upperback 3.25385 -6.32014 6.86531
thorax -4.61153 -3.30301 3.00079
lowerneck -4.28252 -3.42464 -2.53583
upperneck -23.3879 -6.02728 0.193714
head -6.35211 -3.48504 0.816484
rclavicle 7.63333e-014 -6.20208e-014
rhumerus 58.1787 -47.8316 -53.3867
rradius 18.1049
rwrist 5.14793
rhand -15.7165 -57.1556
rfingers 7.12502
rthumb 10.4736 273.125
lclavicle 7.63333e-014 -6.20208e-014
lhumerus 62.6752 -10.8661 56.5382
lradius 27.3958
lwrist 9.50391
lhand -36.9588 -30.3698
lfingers 7.12502
lthumb -10.0349 -0.629069
rfemur -74.4532 -31.8665 -13.3189
rtibia 72.2556
rfoot -45.2158 -21.0278
rtoes 22.4002
lfemur -20.0048 20.217 -34.3194
ltibia 11.6732
lfoot -168.287 195.303
ltoes 42.3645
531
root 12.4199 15.5798 16.0876 623.116 -30.1167 -239.067
lowerback 14.2734 -5.61985 9.4365
upperback 3.30421 -6.0731 7.24629
thorax -4.58029 -3.19323 3.55466
lowerneck -5.05214 -3.36441 -2.18225
upperneck -22.7052 -6.06104 -0.625177
head -6.0422 -3.48372 0.463067
rclavicle 1.08139e-013 4.85035e-014
rhumerus 55.182 -48.0061 -49.1351
rradius 17.9345
rwrist 4.21606
rhand -17.2893 -57.0091
rfingers 7.12502
rthumb 8.95617 273.201
lclavicle 1.08139e-013 4.85035e-014
lhumerus 60.5469 -12.0097 57.3999
lradius 27.0608
lwrist 9.15248
lhand -35.5804 -30.054
lfingers 7.12502
lthumb -8.70486 -0.2535
rfemur -74.3299 -31.2655 -12.3577
rtibia 72.7762
rfoot -45.3131 -21.6483
rtoes 21.8148
lfemur -19.2549 18.6105 -33.3979
ltibia 11.8421
lfoot -170.251 196.306
ltoes 43.748
532
root 12.447 15.5935 16.3517 622.219 -32.1331 -238.959
lowerback 14.8143 -5.60142 9.54501
upperback 3.15343 -5.93489 7.27071
thorax -5.04204 -3.13805 3.57081
lowerneck -5.52305 -3.24067 -2.40854
upperneck -21.7794 -5.70835 -0.147463
head -5.64758 -3.29386 0.603672
rclavicle -1.27222e-014 6.67916e-014
rhumerus 58.1676 -50.4838 -55.1197
rradius 17.692
rwrist 10.0372
rhand -17.3404 -56.7178
rfingers 7.12502
rthumb 8.90686 273.49
lclavicle -1.27222e-014 6.67916e-014
lhumerus 58.2159 -13.3695 57.2236
lradius 26.7486
lwrist 8.94004
lhand -34.4971 -29.6158
lfingers 7.12502
lthumb -7.65938 0.225488
rfemur -73.9517 -30.7232 -11.3983
rtibia 73.0851
rfoot -44.9798 -22.5264
rtoes 19.963
lfemur -18.3227 16.4692 -32.3013
ltibia 12.0755
lfoot -172.59 197.316
ltoes 45.3845
533
root 12.4716 15.613 16.6123 621.274 -34.0364 -238.853
lowerback 15.0595 -5.36573 9.88757
upperback 3.0177 -5.51909 6.8722
thorax -5.38856 -2.94474 2.90994
lowerneck -6.31345 -3.46766 -0.742833
upperneck -20.3058 -6.0066 -0.937049
head -5.1191 -3.47125 0.0357137
rclavicle -6.04305e-014 9.14409e-014
rhumerus 54.2588 -51.768 -52.2443
rradius 17.9035
rwrist 9.52649
rhand -17.2811 -56.7837
rfingers 7.12502
rthumb 8.96412 273.427
lclavicle -6.04305e-014 9.14409e-014
lhumerus 56.5648 -15.6946 56.2327
lradius 26.3687
lwrist 8.93368
lhand -33.5863 -29.4074
lfingers 7.12502
lthumb -6.78019 0.464035
rfemur -73.5238 -30.2841 -10.4106
rtibia 73.7137
rfoot -44.5551 -23.7463
rtoes 16.7647
lfemur -17.3268 14.0573 -31.2591
ltibia 12.4061
lfoot -175.208 198.225
ltoes 46.6376
